<?xml version="1.0" encoding="utf-8"?>
<!-- Generator: Adobe Illustrator 22.1.0, SVG Export Plug-In . SVG Version: 6.00 Build 0)  -->
<svg version="1.1"
	 id="svg2" xmlns:cc="http://creativecommons.org/ns#" xmlns:dc="http://purl.org/dc/elements/1.1/" xmlns:rdf="http://www.w3.org/1999/02/22-rdf-syntax-ns#" xmlns:svg="http://www.w3.org/2000/svg"
	 xmlns="http://www.w3.org/2000/svg" xmlns:xlink="http://www.w3.org/1999/xlink" x="0px" y="0px" viewBox="0 0 592 74"
	 style="enable-background:new 0 0 592 74;" xml:space="preserve">
<image style="overflow:visible;" width="119" height="150" xlink:href="170154A6.png"  transform="matrix(0.48 0 0 0.48 8.44 -184)">
</image>
<image style="overflow:visible;" width="113" height="142" xlink:href="170154AA.png"  transform="matrix(0.48 0 0 0.48 83.88 -182.08)">
</image>
<image style="overflow:visible;" width="119" height="150" xlink:href="170154AD.png"  transform="matrix(0.48 0 0 0.48 156.44 -184)">
</image>
<image style="overflow:visible;" width="113" height="142" xlink:href="170154AE.png"  transform="matrix(-0.48 0 0 0.48 286.12 -182.08)">
</image>
<image style="overflow:visible;" width="119" height="150" xlink:href="170154AC.png"  transform="matrix(0.48 0 0 0.48 304.44 -184)">
</image>
<image style="overflow:visible;" width="113" height="142" xlink:href="170154AB.png"  transform="matrix(0.48 0 0 0.48 379.88 -182.08)">
</image>
<image style="overflow:visible;" width="119" height="150" xlink:href="170154A5.png"  transform="matrix(0.48 0 0 0.48 452.44 -184)">
</image>
<image style="overflow:visible;" width="113" height="142" xlink:href="170154A7.png"  transform="matrix(-0.48 0 0 0.48 582.12 -182.08)">
</image>
<image style="overflow:visible;" width="111" height="144" xlink:href="170154A4.png"  transform="matrix(0.48 0 0 0.48 84.36 -89.56)">
</image>
<image style="overflow:visible;" width="122" height="153" xlink:href="53313C59.png"  transform="matrix(0.48 0 0 0.48 7.72 -91.72)">
</image>
<image style="overflow:visible;" width="111" height="144" xlink:href="53313C5F.png"  transform="matrix(-0.48 0 0 0.48 285.64 -89.56)">
</image>
<image style="overflow:visible;" width="122" height="153" xlink:href="53313C58.png"  transform="matrix(0.48 0 0 0.48 155.72 -91.72)">
</image>
<image style="overflow:visible;" width="111" height="144" xlink:href="53313C5B.png"  transform="matrix(0.48 0 0 0.48 380.36 -89.56)">
</image>
<image style="overflow:visible;" width="122" height="153" xlink:href="53313C47.png"  transform="matrix(0.48 0 0 0.48 303.72 -91.72)">
</image>
<image style="overflow:visible;" width="111" height="144" xlink:href="53313C57.png"  transform="matrix(-0.48 0 0 0.48 581.64 -89.56)">
</image>
<image style="overflow:visible;" width="122" height="153" xlink:href="53313C49.png"  transform="matrix(0.48 0 0 0.48 451.72 -91.72)">
</image>
<image style="overflow:visible;" width="104" height="149" xlink:href="53313C4B.png"  transform="matrix(0.48 0 0 0.48 12.04 0.395)">
</image>
<image style="overflow:visible;" width="104" height="149" xlink:href="53313C48.png"  transform="matrix(0.48 0 0 0.48 160.04 0.395)">
</image>
<image style="overflow:visible;" width="105" height="149" xlink:href="53313C4F.png"  transform="matrix(0.48 0 0 0.48 85.8 0.395)">
</image>
<image style="overflow:visible;" width="104" height="149" xlink:href="53313C6C.png"  transform="matrix(0.48 0 0 0.48 309.04 0.395)">
</image>
<image style="overflow:visible;" width="104" height="149" xlink:href="53313C6F.png"  transform="matrix(0.48 0 0 0.48 457.04 0.395)">
</image>
<image style="overflow:visible;" width="105" height="149" xlink:href="53313C6D.png"  transform="matrix(0.48 0 0 0.48 382.8 0.395)">
</image>
<image style="overflow:visible;" width="104" height="136" xlink:href="53313C63.png"  transform="matrix(0.48 0 0 0.48 234.04 6.635)">
</image>
<image style="overflow:visible;" width="104" height="136" xlink:href="53313C64.png"  transform="matrix(0.48 0 0 0.48 530.04 6.635)">
</image>
<image style="overflow:visible;" width="104" height="149" xlink:href="53313C67.png"  transform="matrix(-0.48 0 0 0.48 505.96 92.395)">
</image>
<image style="overflow:visible;" width="104" height="149" xlink:href="53313C65.png"  transform="matrix(-0.48 0 0 0.48 357.96 92.395)">
</image>
<image style="overflow:visible;" width="105" height="149" xlink:href="53313C62.png"  transform="matrix(-0.48 0 0 0.48 432.2 92.395)">
</image>
<image style="overflow:visible;" width="104" height="136" xlink:href="53313C9C.png"  transform="matrix(-0.48 0 0 0.48 579.96 98.635)">
</image>
<image style="overflow:visible;" width="104" height="149" xlink:href="53313C9F.png"  transform="matrix(-0.48 0 0 0.48 209.96 92.395)">
</image>
<image style="overflow:visible;" width="104" height="149" xlink:href="53313C83.png"  transform="matrix(-0.48 0 0 0.48 61.96 92.395)">
</image>
<image style="overflow:visible;" width="105" height="149" xlink:href="53313C81.png"  transform="matrix(-0.48 0 0 0.48 136.2 92.395)">
</image>
<image style="overflow:visible;" width="104" height="136" xlink:href="53313CBF.png"  transform="matrix(-0.48 0 0 0.48 283.96 98.635)">
</image>
</svg>
